<?xml version="1.0" encoding="UTF-8" standalone="no" ?>
<!DOCTYPE svg PUBLIC "-//W3C//DTD SVG 1.1//EN" "http://www.w3.org/Graphics/SVG/1.1/DTD/svg11.dtd">
<svg width="349mm" xmlns="http://www.w3.org/2000/svg" height="155mm" version="1.1" viewBox="0 0 1321 590" xmlns:xlink="http://www.w3.org/1999/xlink">
   <polyline fill="none" points="933,119 1109,119" stroke="#8080ff" stroke-width="1"/>
   <text x="1017" y="114" fill="#000000" font-size="10" font-family="Arial" text-anchor="middle">0,n</text>
   <path d="M1283,327 L1283,133 A8,8 0 0,0 1275,125 L1110,125" fill="none" stroke="#8080ff" stroke-width="1"/>
   <text x="1271" y="270" fill="#000000" font-size="10" font-family="Arial" text-anchor="middle">1,1</text>
   <polyline fill="none" points="923,567 1133,567" stroke="#8080ff" stroke-width="1"/>
   <text x="1002" y="561" fill="#000000" font-size="10" font-family="Arial" text-anchor="middle">0,n</text>
   <path d="M1283,332 L1283,557 A8,8 0 0,1 1275,565 L1133,565" fill="none" stroke="#8080ff" stroke-width="1"/>
   <text x="1295" y="389" fill="#000000" font-size="10" font-family="Arial" text-anchor="middle">1,1</text>
   <polyline fill="none" points="48,90 48,237" stroke="#8080ff" stroke-width="1"/>
   <text x="60" y="140" fill="#000000" font-size="10" font-family="Arial" text-anchor="middle">1,n</text>
   <polyline fill="none" points="48,345 48,242" stroke="#8080ff" stroke-width="1"/>
   <text x="36" y="300" fill="#000000" font-size="10" font-family="Arial" text-anchor="middle">1,1</text>
   <path d="M46,342 L105,342 A8,8 0 0,1 113,350 L113,415 A8,8 0 0,0 121,423 L167,423" fill="none" stroke="#8080ff" stroke-width="1"/>
   <text x="115" y="337" fill="#000000" font-size="10" font-family="Arial" text-anchor="middle">0,n</text>
   <polyline fill="none" points="167,192 167,411" stroke="#8080ff" stroke-width="1"/>
   <text x="179" y="306" fill="#000000" font-size="10" font-family="Arial" text-anchor="middle">1,1</text>
   <polyline fill="none" points="571,219 394,219" stroke="#8080ff" stroke-width="1"/>
   <text x="481" y="229" fill="#000000" font-size="10" font-family="Arial" text-anchor="middle">1,n</text>
   <path d="M183,169 L377,169 A8,8 0 0,1 385,177 L385,222" fill="none" stroke="#8080ff" stroke-width="1"/>
   <text x="266" y="164" fill="#000000" font-size="10" font-family="Arial" text-anchor="middle">1,1</text>
   <path d="M548,469 L548,381 A8,8 0 0,0 540,373 L370,373" fill="none" stroke="#8080ff" stroke-width="1"/>
   <text x="520" y="364" fill="#000000" font-size="10" font-family="Arial" text-anchor="middle">1,n</text>
   <path d="M217,167 L217,365 A8,8 0 0,0 225,373 L370,373" fill="none" stroke="#8080ff" stroke-width="1"/>
   <text x="229" y="306" fill="#000000" font-size="10" font-family="Arial" text-anchor="middle">1,1</text>
   <polyline fill="none" points="888,560 723,560" stroke="#8080ff" stroke-width="1"/>
   <text x="838" y="551" fill="#000000" font-size="10" font-family="Arial" text-anchor="middle">0,n</text>
   <path d="M604,474 L687,474 A8,8 0 0,1 695,482 L695,548" fill="none" stroke="#8080ff" stroke-width="1"/>
   <text x="636" y="466" fill="#000000" font-size="10" font-family="Arial" text-anchor="middle">1,1</text>
   <path d="M951,167 L992,167 A8,8 0 0,1 1000,175 L1000,230" fill="none" stroke="#8080ff" stroke-width="1"/>
   <text x="1017" y="162" fill="#000000" font-size="10" font-family="Arial" text-anchor="middle">1,1</text>
   <path d="M842,295 L842,273 A8,8 0 0,1 850,265 L992,265 A8,8 0 0,0 1000,257 L1000,230" fill="none" stroke="#8080ff" stroke-width="1"/>
   <text x="834" y="260" fill="#000000" font-size="10" font-family="Arial" text-anchor="middle">0,n</text>
   <path d="M954,492 L986,492 A8,8 0 0,0 994,484 L994,440" fill="none" stroke="#8080ff" stroke-width="1"/>
   <text x="1002" y="505" fill="#000000" font-size="10" font-family="Arial" text-anchor="middle">1,1</text>
   <path d="M843,370 L843,388 A8,8 0 0,0 851,396 L986,396 A8,8 0 0,1 994,404 L994,440" fill="none" stroke="#8080ff" stroke-width="1"/>
   <text x="855" y="406" fill="#000000" font-size="10" font-family="Arial" text-anchor="middle">0,n</text>
   <path d="M883,121 L747,121 A8,8 0 0,1 739,113 L739,96" fill="none" stroke="#8080ff" stroke-width="1"/>
   <text x="845" y="131" fill="#000000" font-size="10" font-family="Arial" text-anchor="middle">0,n</text>
   <path d="M906,33 L745,33 A8,8 0 0,0 737,41 L737,66" fill="none" stroke="#8080ff" stroke-width="1"/>
   <text x="845" y="43" fill="#000000" font-size="10" font-family="Arial" text-anchor="middle">0,n</text>
   <path d="M592,150 L592,83 A8,8 0 0,1 600,75 L643,75" fill="none" stroke="#8080ff" stroke-width="1"/>
   <text x="580" y="121" fill="#000000" font-size="10" font-family="Arial" text-anchor="middle">0,n</text>
   <defs>
      <linearGradient id="Gradient1" x1="0%" x2="100%" y1="0%" y2="100%" gradientUnits="objectBoundingBox">
         <stop offset="5%" stop-color="#ffffff"/>
         <stop offset="95%" stop-color="#e9ca83"/>
      </linearGradient>
   </defs>
   <rect x="873" y="2" fill="url(#Gradient1)" width="116" height="177" stroke="#808040" stroke-width="1"/>
   <text x="931" y="13" fill="#000000" font-size="10" font-family="Arial" text-anchor="middle">Etudiant/Locataire</text>
   <line x1="873" x2="989" y1="19" y2="19" stroke="#808040" stroke-width="1"/>
   <text x="878" y="29" fill="#000000" font-size="10" font-family="Arial" text-decoration="underline">CIN</text>
   <text x="878" y="42" fill="#000000" font-size="10" font-family="Arial">nom</text>
   <text x="878" y="55" fill="#000000" font-size="10" font-family="Arial">prénom</text>
   <text x="878" y="68" fill="#000000" font-size="10" font-family="Arial">date de naissance</text>
   <text x="878" y="81" fill="#000000" font-size="10" font-family="Arial">adress permanent</text>
   <text x="878" y="94" fill="#000000" font-size="10" font-family="Arial">losirs</text>
   <text x="878" y="107" fill="#000000" font-size="10" font-family="Arial">description</text>
   <text x="878" y="120" fill="#000000" font-size="10" font-family="Arial">N° telephone</text>
   <text x="878" y="133" fill="#000000" font-size="10" font-family="Arial">email</text>
   <text x="878" y="146" fill="#000000" font-size="10" font-family="Arial">filière</text>
   <text x="878" y="159" fill="#000000" font-size="10" font-family="Arial">date de 1er inscription</text>
   <text x="878" y="172" fill="#000000" font-size="10" font-family="Arial">niveau d'étude</text>
   <text x="878" y="184" fill="#000000" font-size="10" font-family="Arial">...</text>
   <defs>
      <linearGradient id="Gradient2" x1="0%" x2="100%" y1="0%" y2="100%" gradientUnits="objectBoundingBox">
         <stop offset="5%" stop-color="#ffffff"/>
         <stop offset="95%" stop-color="#e9ca83"/>
      </linearGradient>
   </defs>
   <rect x="866" y="479" fill="url(#Gradient2)" width="108" height="97" stroke="#808040" stroke-width="1"/>
   <text x="920" y="490" fill="#000000" font-size="10" font-family="Arial" text-anchor="middle">Proprietaire</text>
   <line x1="866" x2="974" y1="496" y2="496" stroke="#808040" stroke-width="1"/>
   <text x="871" y="506" fill="#000000" font-size="10" font-family="Arial" text-decoration="underline">code</text>
   <text x="871" y="519" fill="#000000" font-size="10" font-family="Arial">nom</text>
   <text x="871" y="532" fill="#000000" font-size="10" font-family="Arial">prénom</text>
   <text x="871" y="545" fill="#000000" font-size="10" font-family="Arial">N° tele</text>
   <text x="871" y="558" fill="#000000" font-size="10" font-family="Arial">email</text>
   <text x="871" y="571" fill="#000000" font-size="10" font-family="Arial">adresse permanente</text>
   <text x="871" y="581" fill="#000000" font-size="10" font-family="Arial">...</text>
   <defs>
      <linearGradient id="Gradient3" x1="0%" x2="100%" y1="0%" y2="100%" gradientUnits="objectBoundingBox">
         <stop offset="5%" stop-color="#ffffff"/>
         <stop offset="95%" stop-color="#e9ca83"/>
      </linearGradient>
   </defs>
   <rect x="125" y="63" fill="url(#Gradient3)" width="113" height="217" stroke="#808040" stroke-width="1"/>
   <text x="181" y="74" fill="#000000" font-size="10" font-family="Arial" text-anchor="middle">Logement</text>
   <line x1="125" x2="238" y1="80" y2="80" stroke="#808040" stroke-width="1"/>
   <text x="130" y="90" fill="#000000" font-size="10" font-family="Arial" text-decoration="underline">numero</text>
   <text x="130" y="103" fill="#000000" font-size="10" font-family="Arial">superficie</text>
   <text x="130" y="116" fill="#000000" font-size="10" font-family="Arial">étage</text>
   <text x="130" y="129" fill="#000000" font-size="10" font-family="Arial">N° pièce</text>
   <text x="130" y="142" fill="#000000" font-size="10" font-family="Arial">SDB P/NP</text>
   <text x="130" y="155" fill="#000000" font-size="10" font-family="Arial">cuisine P/NP</text>
   <text x="130" y="168" fill="#000000" font-size="10" font-family="Arial">état du bien</text>
   <text x="130" y="181" fill="#000000" font-size="10" font-family="Arial">age du bien</text>
   <text x="130" y="194" fill="#000000" font-size="10" font-family="Arial">meublé ou non</text>
   <text x="130" y="207" fill="#000000" font-size="10" font-family="Arial">description</text>
   <text x="130" y="220" fill="#000000" font-size="10" font-family="Arial">photo</text>
   <text x="130" y="233" fill="#000000" font-size="10" font-family="Arial">N° max de personnes</text>
   <text x="130" y="246" fill="#000000" font-size="10" font-family="Arial">N° locataires actuels</text>
   <text x="130" y="259" fill="#000000" font-size="10" font-family="Arial">Disponibilité</text>
   <text x="130" y="272" fill="#000000" font-size="10" font-family="Arial">date de disp</text>
   <text x="130" y="285" fill="#000000" font-size="10" font-family="Arial">...</text>
   <defs>
      <linearGradient id="Gradient4" x1="0%" x2="100%" y1="0%" y2="100%" gradientUnits="objectBoundingBox">
         <stop offset="5%" stop-color="#ffffff"/>
         <stop offset="95%" stop-color="#e9ca83"/>
      </linearGradient>
   </defs>
   <rect x="478" y="395" fill="url(#Gradient4)" width="141" height="148" stroke="#808040" stroke-width="1"/>
   <text x="548" y="406" fill="#000000" font-size="10" font-family="Arial" text-anchor="middle">Offre</text>
   <line x1="478" x2="619" y1="412" y2="412" stroke="#808040" stroke-width="1"/>
   <text x="482" y="422" fill="#000000" font-size="10" font-family="Arial" text-decoration="underline">code offre</text>
   <text x="482" y="435" fill="#000000" font-size="10" font-family="Arial">statue de l'offre</text>
   <text x="482" y="448" fill="#000000" font-size="10" font-family="Arial">date de pub</text>
   <text x="482" y="461" fill="#000000" font-size="10" font-family="Arial">type</text>
   <text x="482" y="474" fill="#000000" font-size="10" font-family="Arial">description</text>
   <text x="482" y="487" fill="#000000" font-size="10" font-family="Arial">prix proposé</text>
   <text x="482" y="500" fill="#000000" font-size="10" font-family="Arial">prix négociable/non</text>
   <text x="482" y="512" fill="#000000" font-size="10" font-family="Arial">mode de location propposé</text>
   <text x="482" y="525" fill="#000000" font-size="10" font-family="Arial">date de disponibilité</text>
   <text x="482" y="538" fill="#000000" font-size="10" font-family="Arial">date d'expiration</text>
   <text x="482" y="548" fill="#000000" font-size="10" font-family="Arial">...</text>
   <defs>
      <linearGradient id="Gradient5" x1="0%" x2="100%" y1="0%" y2="100%" gradientUnits="objectBoundingBox">
         <stop offset="5%" stop-color="#ffffff"/>
         <stop offset="95%" stop-color="#e9ca83"/>
      </linearGradient>
   </defs>
   <rect x="509" y="142" fill="url(#Gradient5)" width="125" height="148" stroke="#808040" stroke-width="1"/>
   <text x="571" y="153" fill="#000000" font-size="10" font-family="Arial" text-anchor="middle">Demande</text>
   <line x1="509" x2="634" y1="159" y2="159" stroke="#808040" stroke-width="1"/>
   <text x="513" y="169" fill="#000000" font-size="10" font-family="Arial">type</text>
   <text x="513" y="182" fill="#000000" font-size="10" font-family="Arial">ville</text>
   <text x="513" y="194" fill="#000000" font-size="10" font-family="Arial">secteur</text>
   <text x="513" y="207" fill="#000000" font-size="10" font-family="Arial">description</text>
   <text x="513" y="220" fill="#000000" font-size="10" font-family="Arial">mode de location</text>
   <text x="513" y="233" fill="#000000" font-size="10" font-family="Arial">type de logement desiré</text>
   <text x="513" y="246" fill="#000000" font-size="10" font-family="Arial">date</text>
   <text x="513" y="259" fill="#000000" font-size="10" font-family="Arial">dates début/fin</text>
   <text x="513" y="272" fill="#000000" font-size="10" font-family="Arial">statue de demande</text>
   <line x1="509" x2="634" y1="279" y2="279" stroke="#808040" stroke-width="1"/>
   <defs>
      <linearGradient id="Gradient6" x1="0%" x2="100%" y1="0%" y2="100%" gradientUnits="objectBoundingBox">
         <stop offset="5%" stop-color="#ffffff"/>
         <stop offset="95%" stop-color="#e9ca83"/>
      </linearGradient>
   </defs>
   <rect x="1218" y="291" fill="url(#Gradient6)" width="101" height="71" stroke="#808040" stroke-width="1"/>
   <text x="1268" y="302" fill="#000000" font-size="10" font-family="Arial" text-anchor="middle">Compte</text>
   <line x1="1218" x2="1319" y1="308" y2="308" stroke="#808040" stroke-width="1"/>
   <text x="1223" y="318" fill="#000000" font-size="10" font-family="Arial" text-decoration="underline">username</text>
   <text x="1223" y="331" fill="#000000" font-size="10" font-family="Arial">password</text>
   <text x="1223" y="344" fill="#000000" font-size="10" font-family="Arial">date de creation</text>
   <text x="1223" y="357" fill="#000000" font-size="10" font-family="Arial">date de validation</text>
   <text x="1223" y="367" fill="#000000" font-size="10" font-family="Arial">...</text>
   <defs>
      <linearGradient id="Gradient7" x1="0%" x2="100%" y1="0%" y2="100%" gradientUnits="objectBoundingBox">
         <stop offset="5%" stop-color="#ffffff"/>
         <stop offset="95%" stop-color="#e9ca83"/>
      </linearGradient>
   </defs>
   <rect x="769" y="283" fill="url(#Gradient7)" width="132" height="97" stroke="#808040" stroke-width="1"/>
   <text x="835" y="294" fill="#000000" font-size="10" font-family="Arial" text-anchor="middle">Evénement</text>
   <line x1="769" x2="901" y1="300" y2="300" stroke="#808040" stroke-width="1"/>
   <text x="774" y="310" fill="#000000" font-size="10" font-family="Arial">date d'even</text>
   <text x="774" y="323" fill="#000000" font-size="10" font-family="Arial">type</text>
   <text x="774" y="336" fill="#000000" font-size="10" font-family="Arial">description</text>
   <text x="774" y="349" fill="#000000" font-size="10" font-family="Arial">heur debut</text>
   <text x="774" y="362" fill="#000000" font-size="10" font-family="Arial">heur fin</text>
   <text x="774" y="375" fill="#000000" font-size="10" font-family="Arial">public ciblé</text>
   <text x="774" y="385" fill="#000000" font-size="10" font-family="Arial">...</text>
   <text x="837" y="310" fill="#000000" font-size="10" font-family="Arial">&lt;Indéfini&gt;</text>
   <text x="837" y="323" fill="#000000" font-size="10" font-family="Arial">&lt;Indéfini&gt;</text>
   <text x="837" y="336" fill="#000000" font-size="10" font-family="Arial">&lt;Indéfini&gt;</text>
   <text x="837" y="349" fill="#000000" font-size="10" font-family="Arial">&lt;Indéfini&gt;</text>
   <text x="837" y="362" fill="#000000" font-size="10" font-family="Arial">&lt;Indéfini&gt;</text>
   <text x="837" y="375" fill="#000000" font-size="10" font-family="Arial">&lt;Indéfini&gt;</text>
   <defs>
      <linearGradient id="Gradient8" x1="0%" x2="100%" y1="0%" y2="100%" gradientUnits="objectBoundingBox">
         <stop offset="5%" stop-color="#ffffff"/>
         <stop offset="95%" stop-color="#e9ca83"/>
      </linearGradient>
   </defs>
   <rect x="9" y="66" fill="url(#Gradient8)" width="72" height="48" stroke="#808040" stroke-width="1"/>
   <text x="45" y="77" fill="#000000" font-size="10" font-family="Arial" text-anchor="middle">Ville</text>
   <line x1="9" x2="81" y1="83" y2="83" stroke="#808040" stroke-width="1"/>
   <text x="14" y="93" fill="#000000" font-size="10" font-family="Arial" text-decoration="underline">N° ville</text>
   <text x="14" y="106" fill="#000000" font-size="10" font-family="Arial">nom de ville</text>
   <text x="14" y="119" fill="#000000" font-size="10" font-family="Arial">...</text>
   <defs>
      <linearGradient id="Gradient9" x1="0%" x2="100%" y1="0%" y2="100%" gradientUnits="objectBoundingBox">
         <stop offset="5%" stop-color="#ffffff"/>
         <stop offset="95%" stop-color="#e9ca83"/>
      </linearGradient>
   </defs>
   <rect x="2" y="321" fill="url(#Gradient9)" width="85" height="45" stroke="#808040" stroke-width="1"/>
   <text x="44" y="332" fill="#000000" font-size="10" font-family="Arial" text-anchor="middle">Secteur</text>
   <line x1="2" x2="87" y1="338" y2="338" stroke="#808040" stroke-width="1"/>
   <text x="7" y="348" fill="#000000" font-size="10" font-family="Arial" text-decoration="underline">N° secteur</text>
   <text x="7" y="361" fill="#000000" font-size="10" font-family="Arial">nom de secteur</text>
   <text x="7" y="371" fill="#000000" font-size="10" font-family="Arial">...</text>
   <defs>
      <linearGradient id="Gradient10" x1="0%" x2="100%" y1="0%" y2="100%" gradientUnits="objectBoundingBox">
         <stop offset="5%" stop-color="#ffffff"/>
         <stop offset="95%" stop-color="#d0d0ff"/>
      </linearGradient>
   </defs>
   <rect x="1077" y="102" rx="17" ry="23" fill="url(#Gradient10)" width="65" height="46" stroke="#8080ff" stroke-width="1"/>
   <text x="1109" y="118" fill="#000000" font-size="10" font-family="Arial" text-anchor="middle">creation</text>
   <line x1="1077" x2="1142" y1="124" y2="124" stroke="#8080ff" stroke-width="1"/>
   <defs>
      <linearGradient id="Gradient11" x1="0%" x2="100%" y1="0%" y2="100%" gradientUnits="objectBoundingBox">
         <stop offset="5%" stop-color="#ffffff"/>
         <stop offset="95%" stop-color="#d0d0ff"/>
      </linearGradient>
   </defs>
   <rect x="1100" y="541" rx="17" ry="23" fill="url(#Gradient11)" width="65" height="47" stroke="#8080ff" stroke-width="1"/>
   <text x="1132" y="558" fill="#000000" font-size="10" font-family="Arial" text-anchor="middle">creation</text>
   <line x1="1100" x2="1165" y1="564" y2="564" stroke="#8080ff" stroke-width="1"/>
   <defs>
      <linearGradient id="Gradient12" x1="0%" x2="100%" y1="0%" y2="100%" gradientUnits="objectBoundingBox">
         <stop offset="5%" stop-color="#ffffff"/>
         <stop offset="95%" stop-color="#d0d0ff"/>
      </linearGradient>
   </defs>
   <rect x="9" y="214" rx="17" ry="23" fill="url(#Gradient12)" width="84" height="47" stroke="#8080ff" stroke-width="1"/>
   <text x="51" y="231" fill="#000000" font-size="10" font-family="Arial" text-anchor="middle">appartition</text>
   <line x1="9" x2="93" y1="237" y2="237" stroke="#8080ff" stroke-width="1"/>
   <defs>
      <linearGradient id="Gradient13" x1="0%" x2="100%" y1="0%" y2="100%" gradientUnits="objectBoundingBox">
         <stop offset="5%" stop-color="#ffffff"/>
         <stop offset="95%" stop-color="#d0d0ff"/>
      </linearGradient>
   </defs>
   <rect x="125" y="399" rx="17" ry="23" fill="url(#Gradient13)" width="84" height="47" stroke="#8080ff" stroke-width="1"/>
   <text x="167" y="416" fill="#000000" font-size="10" font-family="Arial" text-anchor="middle">appartition</text>
   <line x1="125" x2="209" y1="422" y2="422" stroke="#8080ff" stroke-width="1"/>
   <defs>
      <linearGradient id="Gradient14" x1="0%" x2="100%" y1="0%" y2="100%" gradientUnits="objectBoundingBox">
         <stop offset="5%" stop-color="#ffffff"/>
         <stop offset="95%" stop-color="#d0d0ff"/>
      </linearGradient>
   </defs>
   <rect x="318" y="202" rx="15" ry="20" fill="url(#Gradient14)" width="133" height="40" stroke="#8080ff" stroke-width="1"/>
   <text x="384" y="213" fill="#000000" font-size="10" font-family="Arial" text-anchor="middle">dmd logement</text>
   <line x1="319" x2="451" y1="219" y2="219" stroke="#8080ff" stroke-width="1"/>
   <defs>
      <linearGradient id="Gradient15" x1="0%" x2="100%" y1="0%" y2="100%" gradientUnits="objectBoundingBox">
         <stop offset="5%" stop-color="#ffffff"/>
         <stop offset="95%" stop-color="#d0d0ff"/>
      </linearGradient>
   </defs>
   <rect x="304" y="353" rx="15" ry="20" fill="url(#Gradient15)" width="132" height="40" stroke="#8080ff" stroke-width="1"/>
   <text x="370" y="364" fill="#000000" font-size="10" font-family="Arial" text-anchor="middle">offre logement</text>
   <line x1="304" x2="436" y1="370" y2="370" stroke="#8080ff" stroke-width="1"/>
   <defs>
      <linearGradient id="Gradient16" x1="0%" x2="100%" y1="0%" y2="100%" gradientUnits="objectBoundingBox">
         <stop offset="5%" stop-color="#ffffff"/>
         <stop offset="95%" stop-color="#d0d0ff"/>
      </linearGradient>
   </defs>
   <rect x="676" y="523" rx="17" ry="23" fill="url(#Gradient16)" width="64" height="47" stroke="#8080ff" stroke-width="1"/>
   <text x="708" y="540" fill="#000000" font-size="10" font-family="Arial" text-anchor="middle">publier</text>
   <line x1="676" x2="740" y1="546" y2="546" stroke="#8080ff" stroke-width="1"/>
   <defs>
      <linearGradient id="Gradient17" x1="0%" x2="100%" y1="0%" y2="100%" gradientUnits="objectBoundingBox">
         <stop offset="5%" stop-color="#ffffff"/>
         <stop offset="95%" stop-color="#d0d0ff"/>
      </linearGradient>
   </defs>
   <rect x="964" y="207" rx="17" ry="23" fill="url(#Gradient17)" width="73" height="46" stroke="#8080ff" stroke-width="1"/>
   <text x="1000" y="223" fill="#000000" font-size="10" font-family="Arial" text-anchor="middle">annoncer</text>
   <line x1="964" x2="1037" y1="229" y2="229" stroke="#8080ff" stroke-width="1"/>
   <defs>
      <linearGradient id="Gradient18" x1="0%" x2="100%" y1="0%" y2="100%" gradientUnits="objectBoundingBox">
         <stop offset="5%" stop-color="#ffffff"/>
         <stop offset="95%" stop-color="#d0d0ff"/>
      </linearGradient>
   </defs>
   <rect x="957" y="416" rx="17" ry="23" fill="url(#Gradient18)" width="74" height="47" stroke="#8080ff" stroke-width="1"/>
   <text x="994" y="433" fill="#000000" font-size="10" font-family="Arial" text-anchor="middle">annoncer</text>
   <line x1="957" x2="1031" y1="439" y2="439" stroke="#8080ff" stroke-width="1"/>
   <defs>
      <linearGradient id="Gradient19" x1="0%" x2="100%" y1="0%" y2="100%" gradientUnits="objectBoundingBox">
         <stop offset="5%" stop-color="#ffffff"/>
         <stop offset="95%" stop-color="#d0d0ff"/>
      </linearGradient>
   </defs>
   <rect x="629" y="60" rx="15" ry="20" fill="url(#Gradient19)" width="143" height="40" stroke="#8080ff" stroke-width="1"/>
   <text x="700" y="71" fill="#000000" font-size="10" font-family="Arial" text-anchor="middle">Loc/Coloc</text>
   <line x1="630" x2="772" y1="77" y2="77" stroke="#8080ff" stroke-width="1"/>
   <text x="649" y="87" fill="#000000" font-size="10" font-family="Arial">nombre de personnes</text>
</svg>
